# xmcd CD database file
#
# Track frame offsets:
#	150
#	21329
#	58041
#	74676
#	88821
#	115660
#	137580
#	155610
#	176488
#	204730
#	223010
#	248325
#	273839
#	316583
#
# Disc length: 4749 seconds
#
# Revision: 0
# Processed by: cddbd v1.5.1PL0 Copyright (c) Steve Scherf et al.
# Submitted via: CDex 1.51
#
DISCID=c5128b0e
DTITLE=Cream - Royal Albert Hall - May 3, 2005
DYEAR=2005
DGENRE=Blues
TTITLE0=I'm So Glad
TTITLE1=Spoonfull
TTITLE2=Outside Woman Blues
TTITLE3=Pressed Rat and Wart Hog
TTITLE4=Sleepy Time, Time
TTITLE5=NSU
TTITLE6=Badge
TTITLE7=Politician
TTITLE8=Sweet Wine
TTITLE9=Crossroads
TTITLE10=Sittin' On Top of the World
TTITLE11=White Room
TTITLE12=Toad
TTITLE13=Sunshine of Your Love (encore)
EXTD=YEAR: 2005
EXTT0=
EXTT1=
EXTT2=
EXTT3=
EXTT4=
EXTT5=
EXTT6=
EXTT7=
EXTT8=
EXTT9=
EXTT10=
EXTT11=
EXTT12=
EXTT13=
PLAYORDER=
